<svg width="351" height="144" viewBox="0 0 351 144" fill="none" xmlns="http://www.w3.org/2000/svg">
<g clip-path="url(#clip0_22_26)">
<path d="M305.997 35.9888L293.269 48.7167L338.269 93.717L350.997 80.9891L305.997 35.9888Z" fill="#384429"/>
<path d="M306.007 36.0031L293.279 48.7311L306.778 62.2297L319.506 49.5018L306.007 36.0031Z" fill="#283319"/>
<path d="M306 9H171V135H306V9Z" fill="#E5AEA3"/>
<path d="M297 0H171V9H297V0Z" fill="#202619"/>
<path d="M171 9H162V135H171V9Z" fill="#202619"/>
<path d="M306 9H297V54H306V9Z" fill="#202619"/>
<path d="M306 81H297V135H306V81Z" fill="#202619"/>
<path d="M297 27H171V54H297V27Z" fill="#384429"/>
<path d="M216 27H171V54H216V27Z" fill="#283319"/>
<path d="M351 18H306V36H351V18Z" fill="#384429"/>
<path d="M324 18H306V36H324V18Z" fill="#283319"/>
<path d="M315 36H306V45H315V36Z" fill="#384429"/>
<path d="M297 9H171V27H297V9Z" fill="#754C24"/>
<path d="M216 9H171V27H216V9Z" fill="#5B381B"/>
<path d="M198 90V135H279V90H198Z" fill="#754C24"/>
<path d="M261 54V72H279V54H261Z" fill="#754C24"/>
<path d="M243 54H225V63H243V54Z" fill="#202619"/>
<path d="M243 45H225V54H243V45Z" fill="#754C24"/>
<path d="M198 45H180V54H198V45Z" fill="#5B381B"/>
<path d="M207 54H171V135H207V54Z" fill="#D1998F"/>
<path d="M297 135H180V144H297V135Z" fill="#202619"/>
<path d="M315 63V54H288V63H315Z" fill="#202619"/>
<path d="M315 90V81H288V90H315Z" fill="#202619"/>
<path d="M306 81H315V54H306V81Z" fill="#202619"/>
<path d="M207 90H171V135H207V90Z" fill="#5B381B"/>
<path d="M225 99H198V108H225V99Z" fill="#E5AEA3"/>
<path d="M207 99H198V108H207V99Z" fill="#D1998F"/>
<path d="M216 81V54H198V81H216Z" fill="#E5AEA3"/>
<path d="M191.186 26.996L153.002 65.1798L165.73 77.9077L203.914 39.724L191.186 26.996Z" fill="#C1272D"/>
<path d="M203.914 65.1857L165.73 27.0019L153.002 39.7298L191.186 77.9136L203.914 65.1857Z" fill="#C1272D"/>
<path d="M245.189 27.0023L207.006 65.186L219.734 77.914L257.917 39.7302L245.189 27.0023Z" fill="#C1272D"/>
<path d="M257.908 65.1895L219.724 27.0057L206.996 39.7336L245.18 77.9174L257.908 65.1895Z" fill="#C1272D"/>
<path d="M189 135V126H162V135H189Z" fill="#202619"/>
</g>
<path fill-rule="evenodd" clip-rule="evenodd" d="M126 0H18V18H9V91H18H126H135V18H126V0Z" fill="#D9D9D9"/>
<g clip-path="url(#clip1_22_26)">
<path d="M118.182 27.5677V25H85.14V27.5677H82.2071V25H70.5636V27.5677H67.6447V25H47.2165V27.5677H41.3647V25H23.0506V27.5677H20.1177V45.4637H23.0506V47.9677H25.9694V50.5H22.7647V53.0677H20.1177V70.9637H22.7647V73.4677L25.3977 72.051V74.5833H41.7106V72.051H44.3047V65.8354H45V68.3925H46.9906V70.9602H49.6377V72.0475H52.2177V74.5798H60.1447V72.0475H62.7918V70.9602H65.4247V73.4642H68.0718V75.9965H102.289V73.4642H104.937V75.9965H118.415V65.8354H121.062V53.0677H118.415V50.5H121.062V42.896H118.186V35.2142H121.062V27.5677H118.186H118.182Z" fill="#C1272D"/>
<path d="M58.86 37.7677H61.7929V35.2142V32.6429V30.0752H58.86H55.9271H53.0647V32.6429V35.2142V37.7677H55.9271H58.86Z" fill="#202619"/>
<path d="M123.124 27.5677V25H85.14V27.5677H82.2071V25H70.5635V27.5677H67.6447V25H47.2165V27.5677H41.3647V25H20.9329V27.5677H18V45.4637H20.9329V47.9677H23.8518V50.5H20.6471V53.0677H18V70.9637H20.6471V73.4677H23.28V76H41.7106V73.4677H44.3047V65.8354H45V68.3925H46.9906V70.9602H49.6376V73.4642H52.2176V75.9965H60.1447V73.4642H62.7918V70.9602H65.4247V73.4642H68.0718V75.9965H102.289V73.4642H104.936V75.9965H123.356V65.8354H126.004V53.0677H123.356V50.5H126.004V42.896H123.127V35.2142H126.004V27.5677H123.127H123.124ZM118.126 70.9637H115.493V68.396H118.126V70.9637ZM110.213 53.0677V50.5H112.846V53.0677H110.213ZM39.0776 53.0677V50.5H41.7106V53.0677H39.0776ZM52.2176 53.0677V50.5H54.8647V53.0677H52.2176ZM58.86 47.9677H61.7929V50.5H58.86V47.9677ZM85.14 47.9677H88.0729V50.5H85.14V47.9677ZM76.4153 27.5677H79.3482V30.0717H82.2071V32.6394H85.14V30.0717H88.0729V27.5677H93.9247V45.4637H88.0729V35.2142H85.14V37.7713H82.2071V35.2142H79.3482V45.4637H73.4965V27.5677H76.4153ZM50.1353 30.0717V27.5677H64.7118V30.0717H67.6447V45.4602H61.7929V40.3354H53.0682V45.4602H47.2165V30.0752H50.1353V30.0717ZM20.9329 42.896V30.0752H23.8518V27.5713H38.4282V30.0752H41.3612V32.6429H35.5094V30.0752H26.7847V42.896H35.5094V37.7713H32.5765V35.2142H41.3612V45.4637H38.4282V42.896H35.5094V45.4637H23.8518V42.896H20.9329ZM20.6471 68.396V55.5752H23.28V53.0712H36.4341V55.5752H39.0812V68.396H36.4341V70.9637H23.28V68.396H20.6471ZM49.6376 68.396V65.839H46.9906V63.2712H44.3576V53.0712H49.6376V63.2712H52.2176V65.839H54.8647V63.2712H57.5118V53.0712H62.7918V63.2712H60.1447V65.839H57.5118V68.396H54.8647V70.9637H52.2176V68.396H49.6376ZM68.0682 68.396V53.0712H86.4988V55.5752H73.3447V60.7142H83.8518V63.2712H73.3447V68.396H86.4988V70.9637H68.0682V68.396ZM104.933 68.396V63.2712H97.0588V70.9673H91.7788V53.0712H107.566V55.5752H110.213V60.7142H107.566V63.2712H110.213V70.9673H104.933V68.3996V68.396ZM120.773 55.5752V60.7142H118.126V65.839H115.493V53.0712H120.773V55.5752ZM120.208 45.4637H99.78V27.5677H120.208V30.0717H105.632V35.2106H117.275V37.7677H105.632V42.8925H120.208V45.4602V45.4637Z" fill="#202619"/>
<path d="M31.1541 68.396H33.7976V65.839V63.2677V60.7142V58.1429V55.5752H31.1541H28.507H25.927V58.1429V60.7142V63.2677V65.839V68.396H28.507H31.1541Z" fill="#202619"/>
<path d="M99.6423 55.5752H97.0623V58.1429V60.7142H99.6423H102.289H104.933V58.1429V55.5752H102.289H99.6423Z" fill="#202619"/>
</g>
<path d="M9 18H0V82H9V18Z" fill="#202619"/>
<path d="M144 18H135V91H144V18Z" fill="#202619"/>
<path d="M126 9L126 0L18 -4.72083e-06L18 9L126 9Z" fill="#202619"/>
<path d="M135 100L135 91L18 91L18 100L135 100Z" fill="#202619"/>
<path d="M153 100H144V109H153V100Z" fill="#202619"/>
<path d="M18 9H9V18H18V9Z" fill="#202619"/>
<path d="M135 9H126V18H135V9Z" fill="#202619"/>
<path d="M18 82H9V91H18V82Z" fill="#202619"/>
<defs>
<clipPath id="clip0_22_26">
<rect width="198" height="144" fill="white" transform="translate(153)"/>
</clipPath>
<clipPath id="clip1_22_26">
<rect width="108" height="51" fill="white" transform="translate(18 25)"/>
</clipPath>
</defs>
</svg>
