<svg width="306" height="144" viewBox="0 0 306 144" fill="none" xmlns="http://www.w3.org/2000/svg">
<path d="M122.45 76.16V83.57V91.17V98.77H114.75V91.17H107.05V83.57H99.55V76.16H91.85H84.2V83.57V91.17V98.77V106.34V113.94V121.5V129.1H91.85H99.55V121.5V113.94V106.34V98.77H107.05V106.34H114.75V113.94H122.45V121.5V129.1H130.1H137.8V121.5V113.94V106.34V98.77V91.17V83.57V76.16H130.1H122.45Z" fill="#788B64"/>
<path d="M107.05 68.56V76.16H114.75V68.56H111.28H107.05Z" fill="#3B592D"/>
<path d="M146.04 61.76H139.05H132.19V68.56H137.8H145.46V76.16H153V68.56H146.04V61.76Z" fill="#3B592D"/>
<path d="M173.81 55.02H180.8H187.76V48.11H180.8H173.81H166.81H159.99V41.24V34.33V27.46V20.55V13.64V6.91H153H146.04V13.64V20.55V27.46V34.33V41.24V48.11V55.02H153H159.99H166.81H173.81Z" fill="#788B64"/>
<path d="M208.71 68.56V61.76H201.71V68.56H206.6H208.71Z" fill="#3B592D"/>
<path d="M13.95 55.02H20.95H27.77H34.76H41.76H48.71V48.11H55.71V41.24V34.33H48.71V27.46H41.76H34.76H27.77H20.95V20.55V13.64H27.77H34.76H41.76V20.55H48.71H55.71V13.64H48.71V6.91H41.76H34.76H27.77H20.95H13.95V13.64H6.98999V20.55V27.46H13.95V34.33H20.95H27.77H34.76H41.76V41.24V48.11H34.76H27.77H20.95V41.24H13.95H6.98999V48.11H13.95V55.02Z" fill="#788B64"/>
<path d="M97.29 55.02H118.24V48.11H125.23V13.64H118.24V6.89999H83.48V13.64H76.52V48.11H83.48V55.02H97.29ZM90.47 41.24V13.64H111.28V48.11H90.47V41.24Z" fill="#788B64"/>
<path d="M198.95 76.16H191.25H183.55H176.05H168.35H160.7V83.57V91.17V98.77V106.34V113.94V121.5V129.1H168.35H176.05H183.55H191.25H198.95H206.6H214.3V121.5H206.6H198.95H191.25H183.55H176.05V113.94V106.34H183.55H191.25H198.95H206.6V98.77H198.95H191.25H183.55H176.05V91.17V83.57H183.55H191.25H198.95H206.6H214.3V76.16H206.6H198.95Z" fill="#788B64"/>
<path d="M53.5999 76.16H45.95H38.25H30.5499H23.05H15.35V83.57H7.69995V91.17V98.77H15.35V106.34H23.05H30.5499H38.25H45.95V113.94V121.5H38.25H30.5499H23.05V113.94H15.35H7.69995V121.5H15.35V129.1H23.05H30.5499H38.25H45.95H53.5999V121.5H61.2999V113.94V106.34H53.5999V98.77H45.95H38.25H30.5499H23.05V91.17V83.57H30.5499H38.25H45.95V91.17H53.5999H61.2999V83.57H53.5999V76.16Z" fill="#788B64"/>
<path d="M76.52 55.02H69.52V61.76H62.67V68.56H61.3V76.16H68.96V83.57H76.5V76.16V68.56H83.4801V61.76H76.52V55.02Z" fill="#3B592D"/>
<path d="M227 51.244V43.5329V35.777V28.0659V20.3099V12.5539V5H215.475H204V12.5539V20.3099V28.0659V35.777V43.5329V51.244V59H215.475H227V51.244Z" fill="#C1272D"/>
<path d="M275.45 76.16V83.57H267.75V91.17H260.05V98.77H252.55V91.17V83.57V76.16H244.85H237.2V83.57V91.17V98.77V106.34V113.94V121.5V129.1H244.85H252.55V121.5V113.94V106.34H260.05V113.94H267.75V121.5H275.45V129.1H283.1H290.8V121.5H283.1V113.94H275.45V106.34H267.75V98.77H275.45V91.17H283.1V83.57H290.8V76.16H283.1H275.45Z" fill="#788B64"/>
<path d="M285.19 13.64H278.23V6.89999H243.47V55.01H278.23V48.1H285.19V41.23H292.18V20.54H285.19V13.63V13.64ZM278.23 27.45V41.23H271.24V48.1H257.43V13.64H271.24V20.55H278.23V27.46V27.45Z" fill="#788B64"/>
<path d="M267.75 68.56H264.25H260.05V76.16H267.75V68.56Z" fill="#3B592D"/>
<path d="M222.66 68.56H221.96V76.16H229.5V68.56H229.48H222.66Z" fill="#3B592D"/>
<path d="M221.96 106.34V113.94V121.5H229.5V113.94V106.34V98.77H221.96V106.34Z" fill="#3B592D"/>
<path d="M243.47 68.56V61.76H236.48V68.56H237.2H243.47Z" fill="#3B592D"/>
<path d="M104.28 48.11H111.28V41.24V34.33V27.46V20.55V13.64H104.28H97.29H90.47V20.55V27.46V34.33V41.24V48.11H97.29H104.28Z" fill="#202619"/>
<path d="M271.24 48.11V41.24H278.23V34.33V27.46V20.55H271.24V13.64H264.25H257.43V20.55V27.46V34.33V41.24V48.11H264.25H271.24Z" fill="#202619"/>
<path d="M299.14 20.55V13.64H292.18V6.9H285.19V0H236.47V6.91H232.48L233.48 0H196.71L201.71 48.11H194.75V41.24H173.8V6.91H166.81V0H139.04V13.64H132.19V6.9H125.23V0H76.52V6.91H69.53V13.65H62.68V6.91H55.72V0H6.99V6.91H0V55.02H6.99V61.76H13.95V68.56H7.69V76.16H0V129.1H7.7V136.51H15.36V144H68.96V136.51H84.2V144H114.75V136.51H122.45V144H153V136.51H160.7V144H229.5V136.51H237.2V144H267.75V136.51H275.45V144H306V121.5H298.46V113.94H290.8V106.34H298.46V98.78H306V76.17H298.46V68.57H292.19V61.77H299.15V55.03H306.01V20.55H299.15H299.14ZM250.43 6.91H278.23V13.65H285.19V20.56H292.18V41.25H285.19V48.12H278.23V55.03H243.47V6.91H250.43ZM229.5 106.34V121.5H221.96V98.77H229.5V106.33V106.34ZM145.46 76.16V68.56H132.19V61.76H146.04V68.56H153V76.16H145.46ZM107.06 76.16V68.56H114.76V76.16H107.06ZM76.51 68.56V83.57H68.97V76.16H61.31V68.56H62.68V61.76H69.53V55.02H76.52V61.76H83.48V68.56H76.5H76.51ZM201.72 61.76H208.71V68.56H201.72V61.76ZM221.96 76.16V68.56H229.5V76.16H221.96ZM236.48 61.76H243.47V68.56H236.48V61.76ZM260.06 68.56H267.76V76.16H260.06V68.56ZM208.72 41.24L205.72 6.91H225.67L222.67 55.02H208.72V41.24ZM146.04 6.91H159.99V48.11H187.76V55.02H146.04V6.91ZM83.48 13.65V6.91H118.24V13.65H125.23V48.12H118.24V55.03H83.48V48.12H76.52V13.64H83.48V13.65ZM6.99 48.11V41.24H20.94V48.11H41.75V34.33H13.95V27.46H6.99V13.65H13.95V6.91H48.71V13.65H55.7V20.56H41.75V13.65H20.94V27.46H48.71V34.33H55.7V48.11H48.71V55.02H13.95V48.11H6.99ZM7.69 121.5V113.94H23.04V121.5H45.94V106.34H15.35V98.78H7.69V83.58H15.35V76.17H53.6V83.58H61.3V91.18H45.95V83.58H23.05V98.78H53.6V106.34H61.3V121.5H53.6V129.1H15.35V121.5H7.69ZM122.44 121.5V113.94H114.74V106.34H107.04V98.78H99.54V129.11H84.19V76.17H99.54V83.58H107.04V91.18H114.74V98.78H122.44V76.17H137.79V129.11H122.44V121.51V121.5ZM160.69 121.5V76.16H214.29V83.57H176.04V98.77H206.59V106.33H176.04V121.49H214.29V129.09H160.69V121.49V121.5ZM290.79 83.57H283.09V91.17H275.43V98.77H267.73V106.33H275.43V113.93H283.09V121.49H290.79V129.09H275.44V121.49H267.74V113.93H260.04V106.33H252.54V129.09H237.19V76.15H252.54V98.76H260.04V91.16H267.74V83.56H275.44V76.15H290.79V83.56V83.57Z" fill="#202619"/>
<path d="M3.39001 142.7V141.58H4.52H5.65H6.78H7.91H9.04V142.7H10.17V143.81H11.3H12.43H13.55H14.68H15.81H16.94H18.07H19.2H20.33V142.7H21.46H22.59H23.72H24.85H25.98V141.58V140.47H27.11H28.24H29.37H30.5H31.63V141.58H32.76H33.89V142.7V143.81H35.02H36.15H37.28H38.41H39.53H40.66H41.79V142.7V141.58H42.92H44.05V140.47H45.18H46.31V139.35H47.44H48.57H49.7H50.83H51.96H53.09V140.47H54.22H55.35V139.35V138.23H54.22V137.12H53.09V136H51.96H50.83H49.7H48.57H47.44H46.31H45.18H44.05H42.92H41.79H40.66V137.12H39.53H38.41V138.23H37.28V139.35H36.15V138.23V137.12H37.28V136H38.41V134.89H39.53H40.66V133.77V132.66H39.53H38.41H37.28H36.15V133.77H35.02H33.89V134.89H32.76H31.63V136V137.12H30.5V136H29.37H28.24H27.11V137.12H25.98H24.85V138.23H23.72V139.35H22.59H21.46H20.33H19.2H18.07H16.94H15.81H14.68H13.55V140.47H12.43H11.3V139.35H10.17V138.23H9.04H7.91H6.78H5.65H4.52V139.35H3.39001H2.26V140.47H1.13V141.58V142.7H2.26H3.39001Z" fill="#202619"/>
<path d="M110.7 142.7V141.58V140.47H109.57H108.44V139.35H107.31H106.18V138.23H105.05H103.92H102.79H101.66H100.53V139.35H99.4H98.27V140.47H97.14H96.01H94.88V139.35H96.01V138.23H97.14V137.12V136V134.89H96.01H94.88V136H93.75H92.62V137.12H91.5V138.23V139.35H90.37H89.24V140.47H88.11H86.98H85.85V139.35H84.72V138.23H83.59H82.46V137.12V136H81.33V134.89V133.77H80.2V132.66V131.54H79.07V130.42H77.94H76.81V129.31H75.68V128.19H74.55H73.42H72.29H71.16H70.03H68.9H67.77H66.64H65.52V129.31V130.42H66.64H67.77H68.9V131.54H70.03H71.16V132.66H72.29V133.77H73.42V134.89H74.55V136V137.12V138.23H73.42V139.35H72.29V138.23H71.16V137.12H70.03V136H68.9H67.77V134.89H66.64H65.52H64.39H63.26H62.13V133.77H61V132.66H59.87V131.54H58.74V130.42H57.61V129.31H56.48V128.19H55.35H54.22H53.09V127.08H51.96H50.83H49.7H48.57V128.19H47.44H46.31H45.18V129.31H44.05V130.42H42.92V131.54V132.66H44.05H45.18V131.54H46.31H47.44H48.57H49.7H50.83H51.96V132.66H53.09H54.22V133.77H55.35V134.89H56.48V136H57.61V137.12H56.48V138.23V139.35H57.61H58.74V138.23H59.87H61H62.13H63.26H64.39H65.52V139.35H66.64V140.47H67.77V141.58H68.9V142.7H70.03H71.16H72.29V141.58H73.42H74.55H75.68V140.47H76.81H77.94H79.07V141.58H80.2H81.33V142.7H82.46V143.81H83.59H84.72H85.85H86.98H88.11H89.24H90.37H91.5H92.62H93.75H94.88H96.01H97.14H98.27H99.4V142.7H100.53V141.58H101.66H102.79H103.92H105.05V142.7H106.18V143.81H107.31H108.44H109.57H110.7H111.83V142.7H110.7Z" fill="#202619"/>
<path d="M111.83 140.47V139.35V138.23V137.12H110.7V136V134.89H109.57V133.77H108.44H107.31V132.66H106.18H105.05H103.92H102.79H101.66V133.77H100.53H99.4H98.27V134.89V136H99.4H100.53H101.66H102.79H103.92H105.05H106.18H107.31V137.12H108.44H109.57V138.23V139.35H110.7V140.47V141.58H111.83V142.7V143.81H112.96V142.7V141.58V140.47H111.83Z" fill="#788B64"/>
<path d="M73.42 122.62H72.29V123.74H73.42V122.62Z" fill="#788B64"/>
<path d="M12.43 137.12H13.55H14.68H15.81H16.94H18.07H19.2H20.33H21.46V136H22.59H23.72V134.89H24.85H25.98V133.77H27.11H28.24H29.37H30.5H31.63H32.76H33.89V132.66H35.0201H36.1501V131.54H37.28V130.42H38.41V129.31H39.53V128.19H40.66V127.08H41.7901H42.92V125.96H44.05H45.18H46.3101H47.44V124.85H48.57H49.7001H50.8301H51.96H53.09H54.2201H55.35H56.48H57.6101H58.7401H59.87H61H62.1301V125.96H63.26H64.39H65.52H66.64V124.85V123.73V122.62H67.77H68.9001H70.03V121.5H68.9001H67.77H66.64H65.52H64.39H63.26H62.1301H61H59.87H58.7401H57.6101H56.48H55.35H54.2201H53.09H51.96H50.8301V122.62H49.7001H48.57H47.44H46.3101V123.73H45.18H44.05H42.92V124.85H41.7901H40.66V125.96H39.53H38.41V127.08H37.28V128.19H36.1501V129.31H35.0201V130.42H33.89V131.54H32.76H31.63V132.66H30.5H29.37V131.54H28.24H27.11H25.98V132.66H24.85H23.72H22.59V133.77H21.46V134.89H20.33H19.2V136H18.07H16.94H15.81H14.68V134.89H13.55H12.43H11.3V136H12.43V137.12Z" fill="#788B64"/>
<path d="M81.33 133.77H82.46V134.89H83.59H84.72H85.85H86.98H88.11H89.24V136V137.12H90.37H91.5V136H92.62V134.89H93.75V133.77V132.66H92.62V131.54H91.5H90.37H89.24H88.11H86.98H85.85V132.66H84.72H83.59H82.46V131.54H81.33V130.42H80.2V131.54V132.66H81.33V133.77Z" fill="#788B64"/>
<path d="M38.41 132.66H39.53H40.66V133.77V134.89H39.53H38.41V136H37.28V137.12H36.15V138.23V139.35H37.28V138.23H38.41V137.12H39.53H40.66V136H41.79H42.92H44.05H45.18H46.31H47.44H48.57H49.7H50.83H51.96H53.09V137.12H54.22V138.23H55.35V139.35V140.47H54.22H53.09V139.35H51.96H50.83H49.7H48.57H47.44H46.31V140.47H45.18H44.05V141.58H42.92H41.79V142.7V143.81H42.92H44.05H45.18H46.31H47.44H48.57H49.7H50.83H51.96H53.09H54.22H55.35H56.48H57.61H58.74H59.87H61H62.13H63.26H64.39H65.52H66.64H67.77H68.9H70.03H71.16H72.29H73.42H74.55H75.68H76.81H77.94H79.07H80.2H81.33H82.46V142.7H81.33V141.58H80.2H79.07V140.47H77.94H76.81H75.68V141.58H74.55H73.42H72.29V142.7H71.16H70.03H68.9V141.58H67.77V140.47H66.64V139.35H65.52V138.23H64.39H63.26H62.13H61H59.87H58.74V139.35H57.61H56.48V138.23V137.12H57.61V136H56.48V134.89H55.35V133.77H54.22V132.66H53.09H51.96V131.54H50.83H49.7H48.57H47.44H46.31H45.18V132.66H44.05H42.92V131.54V130.42H44.05V129.31H45.18V128.19H46.31H47.44H48.57V127.08H49.7H50.83H51.96H53.09V128.19H54.22H55.35H56.48V129.31H57.61V130.42H58.74V131.54H59.87V132.66H61V133.77H62.13V134.89H63.26H64.39H65.52H66.64H67.77V136H68.9H70.03V137.12H71.16V138.23H72.29V139.35H73.42V138.23H74.55V137.12V136V134.89H73.42V133.77H72.29V132.66H71.16V131.54H70.03H68.9V130.42H67.77H66.64H65.52V129.31V128.19H66.64H67.77H68.9H70.03H71.16H72.29H73.42H74.55H75.68V129.31H76.81V130.42H77.94H79.07V131.54H80.2V130.42V129.31H79.07V128.19H77.94V127.08H76.81V125.96H75.68V124.85H74.55V123.73H73.42H72.29V122.62H71.16H70.03H68.9H67.77H66.64V123.73V124.85V125.96H65.52H64.39H63.26H62.13V124.85H61H59.87H58.74H57.61H56.48H55.35H54.22H53.09H51.96H50.83H49.7H48.57H47.44V125.96H46.31H45.18H44.05H42.92V127.08H41.79H40.66V128.19H39.53V129.31H38.41V130.42H37.28V131.54H36.15V132.66H37.28H38.41Z" fill="#3B592D"/>
<path d="M30.5 140.47H29.37H28.24H27.11H25.98V141.58V142.7H24.85H23.72H22.59H21.46H20.33V143.81H21.46H22.59H23.72H24.85H25.98H27.11H28.24H29.37H30.5H31.63H32.76H33.89V142.7V141.58H32.76H31.63V140.47H30.5Z" fill="#3B592D"/>
<path d="M81.33 136H82.46V137.12V138.23H83.59H84.72V139.35H85.85V140.47H86.98H88.11H89.24V139.35H90.37H91.5V138.23V137.12H90.37H89.24V136V134.89H88.11H86.98H85.85H84.72H83.59H82.46V133.77H81.33V134.89V136Z" fill="#3B592D"/>
<path d="M92.63 136H91.5V137.12H92.63V136Z" fill="#3B592D"/>
<path d="M111.83 141.58H110.7V142.7H111.83V141.58Z" fill="#3B592D"/>
<path d="M2.26 143.81H3.39H4.52H5.65H6.78H7.91H9.04H10.17V142.7H9.04V141.58H7.91H6.78H5.65H4.52H3.39V142.7H2.26H1.13V141.58V140.47H0V141.58V142.7V143.81H1.13H2.26Z" fill="#3B592D"/>
<path d="M110.7 139.35H109.57V138.23V137.12H108.44H107.31V136H106.18H105.05H103.92H102.79H101.66H100.53H99.4H98.27V134.89H97.14V136V137.12V138.23H96.01V139.35H94.88V140.47H96.01H97.14H98.27V139.35H99.4H100.53V138.23H101.66H102.79H103.92H105.05H106.18V139.35H107.31H108.44V140.47H109.57H110.7V139.35Z" fill="#3B592D"/>
<path d="M81.33 132.66H80.2V133.78H81.33V132.66Z" fill="#3B592D"/>
<path d="M36.15 133.77V132.66H35.02H33.89V133.77H35.02H36.15Z" fill="#3B592D"/>
<path d="M94.88 136V134.89H96.01V133.77H94.88H93.75V134.89H92.62V136H93.75H94.88Z" fill="#3B592D"/>
<path d="M2.26 139.35H3.39001H4.52V138.23H5.65H6.78H7.91H9.04H10.17V139.35H11.3V140.47H12.43H13.55V139.35H14.68H15.81H16.94H18.07H19.2H20.33H21.46H22.59H23.72V138.23H24.85V137.12H25.98H27.11V136H28.24H29.37H30.5V137.12H31.63V136V134.89H32.76H33.89V133.77H32.76H31.63H30.5H29.37H28.24H27.11H25.98V134.89H24.85H23.72V136H22.59H21.46V137.12H20.33H19.2H18.07H16.94H15.81H14.68H13.55H12.43V136H11.3V134.89H10.17H9.04H7.91H6.78H5.65V136H4.52H3.39001V137.12H2.26V138.23H1.13V139.35V140.47H2.26V139.35Z" fill="#3B592D"/>
<path d="M105.05 141.58H103.92H102.79H101.66H100.53V142.7H99.4V143.81H100.53H101.66H102.79H103.92H105.05H106.18V142.7H105.05V141.58Z" fill="#3B592D"/>
<path d="M270.52 136.15H268.97V137.68H270.52V136.15Z" fill="#3B592D"/>
<path d="M219.35 136.15H217.8H216.25H214.7H213.15H211.6H210.04H208.49V137.69H206.94V139.22V140.75V142.28H208.49H210.04V140.75H211.6H213.15H214.7H216.25V139.22H217.8H219.35H220.9V137.69H219.35V136.15Z" fill="#3B592D"/>
<path d="M206.94 133.09H205.39V134.62H206.94V133.09Z" fill="#3B592D"/>
<path d="M262.77 136.15H264.32H265.87V134.62H264.32V133.09V131.56H262.77V130.03H261.22V128.5H259.67H258.12V126.96H256.57V128.5H255.02H253.46H251.91V130.03H250.36V131.56H248.81V133.09V134.62H250.36H251.91V136.15V137.69V139.22H253.46V137.69H255.02V136.15H256.57H258.12H259.67H261.22H262.77Z" fill="#3B592D"/>
<path d="M248.81 139.22V137.69H247.26V139.22H245.71V140.75H247.26H248.81H250.36H251.91V139.22H250.36H248.81Z" fill="#3B592D"/>
<path d="M275.17 139.22V137.69H273.62H272.07V139.22H273.62V140.75H275.17H276.72V139.22H275.17Z" fill="#3B592D"/>
<path d="M264.32 139.22H262.77H261.22V140.75H262.77H264.32H265.87H267.42V139.22H265.87H264.32Z" fill="#3B592D"/>
<path d="M255.01 123.9H253.46V125.43H255.01V123.9Z" fill="#3B592D"/>
<path d="M247.26 123.9H248.81H250.36H251.91H253.46V122.37H251.91V120.84H250.36H248.81V119.31H247.26H245.71H244.16H242.61H241.06H239.51H237.96V117.78H236.41V116.24H234.86V114.71H233.31H231.75V113.18H230.2H228.65H227.1H225.55H224V114.71H222.45V116.24H220.9H219.35V117.78V119.31H217.8V120.84H219.35H220.9H222.45H224V119.31H225.55H227.1H228.65H230.2H231.75H233.31H234.86V120.84H236.41V122.37V123.9H234.86H233.31V125.43H231.75V126.96H230.2V128.5V130.03H228.65V131.56H227.1V133.09H228.65H230.2H231.75V134.62H233.31V136.15V137.69H231.75H230.2H228.65V139.22H230.2H231.75H233.31H234.86H236.41H237.96V137.69V136.15V134.62V133.09H236.41V131.56H234.86V130.03V128.5H236.41V126.96H237.96H239.51H241.06V125.43H242.61V123.9H244.16H245.71H247.26Z" fill="#3B592D"/>
<path d="M217.8 131.56V130.03V128.5H219.35V126.96V125.43H217.8V123.9H216.25H214.7H213.15V125.43H211.6V126.96V128.5H210.04V130.03V131.56H208.49V133.09H210.04H211.6H213.15H214.7H216.25H217.8H219.35H220.9V131.56H219.35H217.8Z" fill="#3B592D"/>
<path d="M219.35 133.09H217.8H216.25H214.7H213.15H211.6V134.62V136.15H213.15H214.7H216.25H217.8H219.35V137.69H220.9H222.45V136.15V134.62V133.09H220.9H219.35Z" fill="#788B64"/>
<path d="M278.28 140.75V139.22V137.69H276.72V136.15H275.17V134.62H273.62H272.07H270.52H268.97V133.09H267.42V131.56V130.03V128.5H265.87V126.96H264.32H262.77V125.43H261.22H259.67H258.12H256.57V123.9V122.37H255.02V120.84V119.31H253.46V117.78H251.91V116.24H250.36H248.81H247.26H245.71H244.16H242.61H241.06V117.78H239.51V116.24H237.96V114.71H236.41V113.18H234.86V111.65H233.31V110.12H231.75H230.2H228.65H227.1H225.55H224V111.65H222.45H220.9V113.18H219.35V114.71H217.8V116.24V117.78H216.25V119.31V120.84H214.7H213.15H211.6V122.37H210.04V123.9H208.49V125.43V126.96V128.5V130.03H206.94V131.56H205.39H203.84V133.09H202.29V134.62H200.74V136.15V137.69V139.22V140.75V142.28H202.29V140.75V139.22V137.69H203.84V136.15V134.62H205.39V133.09H206.94H208.49V131.56H210.04V130.03V128.5H211.6V126.96V125.43H213.15V123.9H214.7H216.25V122.37H217.8V120.84V119.31H219.35V117.78V116.24H220.9H222.45V114.71H224V113.18H225.55H227.1H228.65H230.2H231.75V114.71H233.31H234.86V116.24H236.41V117.78H237.96V119.31H239.51H241.06H242.61H244.16H245.71H247.26H248.81V120.84H250.36H251.91V122.37H253.46V123.9H255.02V125.43H253.46H251.91H250.36V126.96H248.81H247.26V128.5H245.71V130.03H244.16V131.56V133.09V134.62V136.15H245.71H247.26V134.62H248.81V133.09V131.56H250.36V130.03H251.91V128.5H253.46H255.02H256.57V126.96H258.12V128.5H259.67H261.22V130.03H262.77V131.56H264.32V133.09V134.62H265.87V136.15H267.42H268.97H270.52V137.69H272.07H273.62H275.17V139.22H276.72V140.75V142.28V143.81H278.28H279.83V142.28V140.75H278.28Z" fill="#788B64"/>
<path d="M217.8 125.43H219.35V126.96V128.5H220.9H222.45V126.96V125.43H220.9V123.9V122.37H219.35H217.8V123.9V125.43Z" fill="#788B64"/>
<path d="M236.41 123.9V122.37V120.84H234.86H233.31H231.75V122.37H230.2H228.65V123.9H227.1V125.43H225.55V126.96V128.5H224V130.03V131.56V133.09V134.62H225.55H227.1V133.09V131.56H228.65V130.03H230.2V128.5V126.96H231.75V125.43H233.31V123.9H234.86H236.41Z" fill="#788B64"/>
<path d="M239.51 128.5H237.96H236.41H234.86V130.03V131.56H236.41V133.09H237.96V134.62V136.15V137.69H239.51H241.06V136.15V134.62V133.09V131.56V130.03H239.51V128.5Z" fill="#788B64"/>
<path d="M275.17 140.75H273.62V139.22H272.07V137.69H268.97V136.16H255.01V137.69H253.46V139.22H251.91V140.75H245.71V139.22H247.26V137.69H248.81V139.22H251.91V134.63H247.26V136.16H244.16V130.03H245.71V128.5H247.26V126.97H250.36V125.44H253.46V123.91H242.61V125.44H241.06V126.97H236.41V128.5H239.51V130.03H241.06V137.69H237.96V139.22H228.66V137.69H233.31V134.63H231.76V133.1H227.11V134.63H224.01V128.5H225.56V125.44H227.11V123.91H228.66V122.38H231.76V120.85H234.86V119.32H224.01V120.85H217.81V122.38H220.91V125.44H222.46V128.5H217.81V131.56H220.91V133.09H222.46V137.68H220.91V139.21H216.26V140.74H210.06V142.27H206.96V137.68H208.51V136.15H211.61V133.09H206.96V134.62H203.86V137.68H202.31V142.27H200.76V143.8H276.74V140.74H275.19L275.17 140.75ZM261.21 139.22H267.41V140.75H261.21V139.22Z" fill="#202619"/>
<path d="M217.8 122.37H216.25V123.9H217.8V122.37Z" fill="#202619"/>
<rect x="206" y="38" width="19" height="7" fill="#202619"/>
</svg>
