<?xml version="1.0" encoding="utf-8"?>
<!-- Generator: Adobe Illustrator 27.6.1, SVG Export Plug-In . SVG Version: 6.00 Build 0)  -->
<svg version="1.1" id="Layer_1" xmlns="http://www.w3.org/2000/svg" xmlns:xlink="http://www.w3.org/1999/xlink" x="0px" y="0px"
	 viewBox="0 0 43 42.9" style="enable-background:new 0 0 43 42.9;" xml:space="preserve">
<style type="text/css">
	.st0{fill:#D9D9D9;}
	.st1{fill:#202619;}
</style>
<g>
	<path class="st0" d="M31.6,6.9l-1-1.8l-2,1l-1-1.8l-3.9,2.2l-1-1.9l-5.8,3.2l-1-1.8l-4,2.2L7.7,0.8L5.8,1.9L4.8,0L0.9,2.1L2,4.1
		l-2,1l9.2,16.7l-1.9,1.1l-1-1.8l-5.8,3.2l1,1.8L2,26.9l1.6,2.8l1.9-1.1l1,1.8l1.9-1.1l2.1,3.7l1.9-1.1l2.1,3.7l1.9-1.1l2.1,3.7
		l1.9-1.1l2.1,3.7l1,1.8l17.7-9.8l1.9-1.1l-3.1-5.5l1.9-1.1l-3.2-5.6l1.9-1.1l-7.1-13L31.6,6.9z"/>
	<rect x="6" y="3" transform="matrix(0.8737 -0.4864 0.4864 0.8737 -6.7287 5.4493)" class="st1" width="2.2" height="25.4"/>
	<rect x="1.1" y="1" transform="matrix(0.8737 -0.4864 0.4864 0.8737 -0.555 1.8861)" class="st1" width="4.5" height="2.1"/>
	<rect x="10.3" y="0.1" transform="matrix(0.8737 -0.4864 0.4864 0.8737 -3.253 6.7442)" class="st1" width="2.2" height="19"/>
	<rect x="12.1" y="6.9" transform="matrix(0.8737 -0.4864 0.4864 0.8737 -2.0791 7.9868)" class="st1" width="4.5" height="2.1"/>
	<rect x="19.3" y="8.8" transform="matrix(0.8737 -0.4864 0.4864 0.8737 -3.245 11.4173)" class="st1" width="2.2" height="6.3"/>
	<rect x="16.9" y="6.1" transform="matrix(0.8737 -0.4864 0.4864 0.8737 -0.9314 10.7318)" class="st1" width="6.7" height="2.1"/>
	<rect x="26.1" y="7.4" transform="matrix(0.8737 -0.4864 0.4864 0.8737 -1.7086 14.5626)" class="st1" width="2.2" height="6.3"/>
	<rect x="23.9" y="5.2" transform="matrix(0.8737 -0.4864 0.4864 0.8737 0.2308 13.4835)" class="st1" width="4.5" height="2.1"/>
	<rect x="28.9" y="5.5" transform="matrix(0.8737 -0.4864 0.4864 0.8737 0.5983 15.4287)" class="st1" width="2.2" height="2.1"/>
	<rect x="35.1" y="5.4" transform="matrix(0.8737 -0.4864 0.4864 0.8737 -1.6784 19.2037)" class="st1" width="2.2" height="14.8"/>
	<rect x="38.2" y="20" transform="matrix(0.8737 -0.4864 0.4864 0.8737 -6.2975 22.0445)" class="st1" width="2.2" height="6.3"/>
	<rect x="39.4" y="26.5" transform="matrix(0.8737 -0.4864 0.4864 0.8737 -9.3475 23.4328)" class="st1" width="2.2" height="6.3"/>
	<rect x="21.8" y="36" transform="matrix(0.8737 -0.4864 0.4864 0.8737 -14.0189 20.1405)" class="st1" width="20" height="2.1"/>
	<rect x="7.7" y="22.1" transform="matrix(0.8737 -0.4864 0.4864 0.8737 -10.1709 7.1903)" class="st1" width="2.2" height="2.1"/>
	<rect x="0.6" y="22.5" transform="matrix(0.8737 -0.4864 0.4864 0.8737 -10.9568 4.8739)" class="st1" width="6.7" height="2.1"/>
	<rect x="2.4" y="25.3" transform="matrix(0.8737 -0.4864 0.4864 0.8737 -12.8987 5.139)" class="st1" width="2.2" height="4.2"/>
	<rect x="5.9" y="28" transform="matrix(0.8737 -0.4864 0.4864 0.8737 -13.2499 7.0757)" class="st1" width="2.2" height="2.1"/>
	<rect x="9.4" y="28.6" transform="matrix(0.8737 -0.4864 0.4864 0.8737 -13.6292 8.9828)" class="st1" width="2.2" height="4.2"/>
	
		<rect x="13.4" y="31.3" transform="matrix(0.8737 -0.4864 0.4864 0.8737 -14.4092 11.2629)" class="st1" width="2.2" height="4.2"/>
	
		<rect x="17.4" y="33.9" transform="matrix(0.8737 -0.4864 0.4864 0.8737 -15.1661 13.5293)" class="st1" width="2.2" height="4.2"/>
	<rect x="21.4" y="36.5" transform="matrix(0.8737 -0.4864 0.4864 0.8737 -15.923 15.7957)" class="st1" width="2.2" height="4.2"/>
</g>
</svg>
